<svg width="400" height="142" viewBox="0 0 400 142" fill="none" xmlns="http://www.w3.org/2000/svg">
<path d="M4.78516 118V47.2969H35.0586C51.1719 47.2969 59.668 54.2305 59.668 65.0703C59.668 72.8828 54.1016 78.8398 46.0938 80.5V81.1836C54.9805 81.4766 62.4023 88.0195 62.4023 98.0781C62.4023 109.602 53.0273 118 37.5977 118H4.78516ZM32.8125 103.059C39.4531 103.059 42.7734 100.52 42.7734 95.7344C42.7734 90.5586 39.0625 87.6289 33.1055 87.6289H23.3398V103.059H32.8125ZM31.6406 76.0078C36.8164 76.0078 40.5273 73.4688 40.5273 68.9766C40.5273 64.4844 37.0117 61.9453 31.9336 61.9453H23.3398V76.0078H31.6406ZM69.7266 118V64.9727H88.1836V118H69.7266ZM78.9062 59.2109C73.8281 59.2109 69.7266 55.4023 69.7266 50.7148C69.7266 46.0273 73.8281 42.2188 78.9062 42.2188C83.9844 42.2188 88.0859 46.0273 88.0859 50.7148C88.0859 55.4023 83.9844 59.2109 78.9062 59.2109ZM129.199 64.9727V78.3516H119.922V101.008C119.922 103.547 121.191 104.523 123.73 104.621C125.098 104.719 127.832 104.523 129.883 104.328V118.098C128.125 118.391 125.293 118.781 121.094 118.781C108.203 118.781 101.367 113.898 101.465 102.863V78.3516H94.6289V64.9727H101.465V52.2773H119.922V64.9727H129.199ZM161.719 118.977C144.824 118.977 134.473 108.723 134.473 91.6328C134.473 75.2266 144.922 64.2891 161.328 64.2891C177.051 64.2891 187.5 74.4453 187.5 91.4375V95.832H152.734V96.5156C152.734 101.984 156.25 105.891 162.109 105.891C166.113 105.891 169.336 104.133 170.508 101.105H187.402C185.547 112.043 176.172 118.977 161.719 118.977ZM152.734 85.4805H170.41C170.312 80.6953 166.602 77.375 161.719 77.375C156.787 77.375 152.881 80.7441 152.734 85.4805ZM195.215 118V47.2969H225.293C241.113 47.2969 251.465 57.2578 251.465 72.1016C251.465 87.2383 240.82 96.7109 224.707 96.7109H213.77V118H195.215ZM213.77 82.2578H220.996C228.027 82.2578 232.031 78.3516 232.031 72.1016C232.031 65.9492 228.027 62.1406 220.996 62.1406H213.77V82.2578ZM258.984 118V64.9727H277.441V118H258.984ZM268.164 59.2109C263.086 59.2109 258.984 55.4023 258.984 50.7148C258.984 46.0273 263.086 42.2188 268.164 42.2188C273.242 42.2188 277.344 46.0273 277.344 50.7148C277.344 55.4023 273.242 59.2109 268.164 59.2109ZM312.598 118.977C295.508 118.977 285.254 107.941 285.254 91.6328C285.254 75.3242 295.508 64.2891 312.598 64.2891C327.93 64.2891 337.695 73.0781 337.891 86.75H320.703C320.215 81.1836 317.188 78.1562 312.891 78.1562C307.617 78.1562 304.102 82.5508 304.102 91.4375C304.102 100.422 307.617 104.914 312.891 104.914C317.188 104.914 320.215 101.887 320.703 96.2227H337.891C337.598 110.09 328.125 118.977 312.598 118.977ZM345.898 118V47.2969H364.355V83.1367H365.039L378.418 64.9727H399.219L381.055 88.2148L399.805 118H378.613L367.383 98.957L364.355 102.668V118H345.898Z" fill="black"/>
<path d="M291.158 40.5774C289.983 42.2964 295.695 26.1234 297.539 26.1234C299.382 26.1234 312.712 42.8317 312.712 42.8317C323.926 21.3753 331.428 9.79554 350.424 0.285819C350.591 0.13942 350.782 0.0404976 351 0C350.807 0.0950697 350.615 0.19034 350.424 0.285819C348.966 1.5638 349.308 6.45968 349.015 7.69114C348.688 9.06366 326.025 31.9925 319.093 57.2857C319.076 56.5872 310.003 63.755 308.883 59.8052C307.764 55.8555 292.332 38.8584 291.158 40.5774Z" fill="#FBD459"/>
</svg>
