<svg width="24" height="24" viewBox="0 0 24 24" fill="none" xmlns="http://www.w3.org/2000/svg">
<path d="M20.4583 4.60983C19.9696 4.09889 19.3894 3.69357 18.7508 3.41704C18.1121 3.1405 17.4276 2.99817 16.7364 2.99817C16.0451 2.99817 15.3606 3.1405 14.722 3.41704C14.0834 3.69357 13.5031 4.09889 13.0144 4.60983L12.0002 5.66973L10.986 4.60983C9.99891 3.57824 8.66009 2.9987 7.2641 2.9987C5.8681 2.9987 4.52928 3.57824 3.54216 4.60983C2.55505 5.64142 2.00049 7.04056 2.00049 8.49944C2.00049 9.95833 2.55505 11.3575 3.54216 12.3891L4.55637 13.4489L12.0002 21.2282L19.4441 13.4489L20.4583 12.3891C20.9472 11.8783 21.3351 11.272 21.5997 10.6046C21.8643 9.9372 22.0005 9.22186 22.0005 8.49944C22.0005 7.77703 21.8643 7.06169 21.5997 6.3943C21.3351 5.72691 20.9472 5.12054 20.4583 4.60983Z" fill="#E74C3C"/>
</svg>
